# AST/ASF file generated using VICON BodyLanguage
# -----------------------------------------------
:version 1.10
:name VICON
:units
  mass 1.0
  length 0.45
  angle deg
:documentation
   .ast/.asf automatically generated from VICON data using
   VICON BodyBuilder and BodyLanguage model FoxedUp or BRILLIANT.MOD
:root
   order TX TY TZ RX RY RZ
   axis XYZ
   position 0 0 0  
   orientation 0 0 0 
:bonedata
  begin
     id 1 
     name lhipjoint
     direction 0.577973 -0.728611 0.367523 
     length 2.48544 
     axis 0 0 0  XYZ
  end
  begin
     id 2 
     name lfemur
     direction 0.34202 -0.939693 0  
     length 7.1921  
     axis 0 0 20  XYZ
    dof rx ry rz
    limits (-160.0 20.0)
           (-70.0 70.0)
           (-60.0 70.0)
  end
  begin
     id 3 
     name ltibia
     direction 0.34202 -0.939693 0   
     length 7.71059   
     axis 0 0 20   XYZ
    dof rx
    limits (-10.0 170.0)
  end
  begin
     id 4 
     name lfoot
     direction 0.089538 -0.246004 0.965124   
     length 2.19909   
     axis -90 7.62852e-016 20   XYZ
    dof rx rz
    limits (-45.0 90.0)
           (-70.0 20.0)
  end
  begin
     id 5 
     name ltoes
     direction 1.53544e-011 -4.21829e-011 1   
     length 1.10116   
     axis -90 7.62852e-016 20   XYZ
    dof rx
    limits (-90.0 20.0)
  end
  begin
     id 6 
     name rhipjoint
     direction -0.554414 -0.743062 0.374812   
     length 2.4371  
     axis 0 0 0  XYZ 
  end
  begin
     id 7 
     name rfemur
     direction -0.34202 -0.939693 0   
     length 7.47254   
     axis 0 0 -20   XYZ
    dof rx ry rz
    limits (-160.0 20.0)
           (-70.0 70.0)
           (-70.0 60.0)
  end
  begin
     id 8 
     name rtibia
     direction -0.34202 -0.939693 0   
     length 7.65855   
     axis 0 0 -20   XYZ
    dof rx
    limits (-10.0 170.0)
 end
 begin
     id 9 
     name rfoot
     direction -0.133779 -0.367555 0.92033   
     length 2.43006  
     axis -90 -7.62852e-016 -20   XYZ
    dof rx rz
    limits (-45.0 90.0)
           (-20.0 70.0)
  end
  begin
     id 10 
     name rtoes
     direction -1.53563e-011 -4.21889e-011 1   
     length 1.19625   
     axis -90 -7.62852e-016 -20   XYZ
    dof rx
    limits (-90.0 20.0)
  end
  begin
     id 11 
     name lowerback
     direction 0.0249066 0.998043 -0.0573585   
     length 2.08485   
     axis 0 0 0   XYZ
    dof rx ry rz
    limits (-20.0 45.0)
           (-30.0 30.0)
           (-30.0 30.0)
  end
  begin
     id 12 
     name upperback
     direction 0.0237884 0.999673 0.00943178   
     length 2.08515   
     axis 0 0 0   XYZ
    dof rx ry rz
    limits (-20.0 45.0)
           (-30.0 30.0)
           (-30.0 30.0)
  end
  begin
     id 13 
     name thorax
     direction 0.0106671 0.999301 0.0358174   
     length 2.09037   
     axis 0 0 0   XYZ
    dof rx ry rz
    limits (-20.0 45.0)
           (-30.0 30.0)
           (-30.0 30.0)
  end
  begin
     id 14 
     name lowerneck
     direction -0.0580016 0.987052 0.149546   
     length 1.84454   
     axis 0 0 0   XYZ
    dof rx ry rz
    limits (-20.0 45.0)
           (-30.0 30.0)
           (-30.0 30.0)
  end
  begin
     id 15 
     name upperneck
     direction 0.079456 0.981963 -0.171567   
     length 1.88141   
     axis 0 0 0   XYZ
    dof rx ry rz
    limits (-20.0 45.0)
           (-30.0 30.0)
           (-30.0 30.0)
  end
  begin
     id 16
     name head
     direction 0.0262167 0.9967 -0.0768276  
     length 1.89541  
     axis 0 0 0   XYZ
    dof rx ry rz
    limits (-20.0 45.0)
           (-30.0 30.0)
           (-30.0 30.0)
  end
  begin
     id 17 
     name lclavicle
     direction 0.946135 0.322134 -0.0325326  
     length 3.949  
     axis 0 0 0   XYZ
    dof ry rz
    limits (-20.0 10.0)
           (0.0 20.0)
  end
  begin
     id 18 
     name lhumerus
     direction 1 -4.48964e-011 1.94005e-028   
     length 5.10995   
     axis 180 -30 -90   XYZ
    dof rx ry rz
    limits (-60.0 90.0)
           (-90.0 90.0)
           (-90.0 90.0)
  end
  begin
     id 19
     name lradius
     direction 1 -4.48976e-011 2.87852e-027   
     length 3.21207   
     axis 180 -30 -90   XYZ
    dof rx
    limits (-10.0 170.0)
  end
  begin
     id 20
     name lwrist
     direction 1 -4.48963e-011 1.9975e-027   
     length 1.60604   
     axis 2.96054e-016 90 90   XYZ
    dof ry
    limits (-180.0 0.0)
 end
  begin
     id 21 
     name lhand
     direction 1 -4.48919e-011 4.00227e-027   
     length 0.63349   
     axis -2.5488e-015 90 90   XYZ
    dof rx rz
    limits (-90.0 90.0)
           (-45.0 45.0)
  end
  begin
     id 22 
     name lfingers
     direction 1 -4.49037e-011 7.9652e-027   
     length 0.510736   
     axis -5.0975e-015 90 90   XYZ
    dof rx
    limits (0.0 90.0)
  end
  begin
     id 23
     name lthumb
     direction 0.707107 -6.34922e-011 0.707107   
     length 0.733318   
     axis -90 45 -4.48553e-014   XYZ
    dof rx rz
    limits (-45.0 45.0)
           (-45.0 45.0)
  end
  begin
     id 24 
     name rclavicle
     direction -0.940085 0.328911 -0.0897654   
     length 3.93848  
     axis 0 0 0   XYZ 
    dof ry rz
    limits (-10.0 20.0)
           (-20.0 0.0)
  end
  begin
     id 25 
     name rhumerus
     direction -1 -4.48958e-011 3.02044e-027  
     length 5.25109   
     axis 180 30 90   XYZ
    dof rx ry rz
    limits (-90.0 60.0)
           (-90.0 90.0)
           (-90.0 90.0)
  end
  begin
     id 26 
     name rradius
     direction -1 -4.4897e-011 9.78352e-028   
     length 3.28364   
     axis 180 30 90   XYZ
    dof rx
    limits (-10.0 170.0)
  end
  begin
     id 27 
     name rwrist
     direction -1 -4.48943e-011 1.99918e-027   
     length 1.64182   
     axis 2.96054e-016 -90 -90   XYZ
    dof ry
    limits (-180.0 0.0)
  end
  begin
     id 28
     name rhand
     direction -1 -4.49024e-011 3.98478e-027   
     length 0.599745   
     axis -2.5488e-015 -90 -90   XYZ
    dof rx rz
    limits (-90.0 90.0)
           (-45.0 45.0)
  end
  begin
     id 29
     name rfingers
     direction -1 -4.48914e-011 8.00621e-027   
     length 0.48353   
     axis -5.0975e-015 -90 -90   XYZ
    dof rx
    limits (0.0 90.0)
  end
  begin
     id 30
     name rthumb
     direction -0.707107 -6.34992e-011 0.707107   
     length 0.694255   
     axis -90 -45 4.48553e-014   XYZ
    dof rx rz
    limits (-45.0 45.0)
           (-45.0 45.0)
  end
:hierarchy
  begin
    root lhipjoint rhipjoint lowerback
    lhipjoint lfemur
    lfemur ltibia
    ltibia lfoot
    lfoot ltoes
    rhipjoint rfemur
    rfemur rtibia
    rtibia rfoot
    rfoot rtoes
    lowerback upperback
    upperback thorax
    thorax lowerneck lclavicle rclavicle
    lowerneck upperneck
    upperneck head
    lclavicle lhumerus
    lhumerus lradius
    lradius lwrist
    lwrist lhand lthumb
    lhand lfingers
    rclavicle rhumerus
    rhumerus rradius
    rradius rwrist
    rwrist rhand rthumb
    rhand rfingers
  end

#!OML:ASF E:\CV Data\Top Level 1\Subject 1\Session 1\player.ASF
:FULLY-SPECIFIED
:DEGREES
694
root 6.54606 17.7609 -3.45704 18.7523 0.804923 -1.54862
lowerback 9.26236 4.83566 1.10391
upperback 0.56847 6.5796 0.960298
thorax -4.56824 3.23333 -0.473371
lowerneck -10.3518 -13.8186 -16.9427
upperneck 0.879885 -17.2733 15.6617
head 4.79062 -8.14607 5.90159
rclavicle 1.98785e-015 -4.77083e-015
rhumerus 24.774 4.6686 -44.0032
rradius 51.8527
rwrist -42.2781
rhand -30.7897 -14.7388
rfingers 7.12502
rthumb -4.08005 -44.6795
lclavicle 1.98785e-015 -4.77083e-015
lhumerus -29.89 -13.8054 88.4577
lradius 69.3235
lwrist 24.8067
lhand -20.6572 13.9143
lfingers 7.12502
lthumb 5.70528 43.8175
rfemur -15.179 -17.094 16.4536
rtibia 19.0983
rfoot -17.4588 -30.839
rtoes 4.71121
lfemur -34.0302 -4.90576 -20.3788
ltibia 24.3049
lfoot -6.79268 -13.7762
ltoes 7.1362
695
root 6.54413 17.7615 -3.46051 18.6881 0.745931 -1.53739
lowerback 9.23437 4.83071 1.10003
upperback 0.552735 6.57324 0.970741
thorax -4.57082 3.23044 -0.458028
lowerneck -10.3431 -13.8349 -16.921
upperneck 0.991372 -17.3062 15.6091
head 4.8208 -8.16304 5.87523
rclavicle 4.77083e-015 3.97569e-015
rhumerus 24.4315 4.85909 -44.261
rradius 52.0004
rwrist -42.2736
rhand -30.8134 -14.6508
rfingers 7.12502
rthumb -4.10293 -44.591
lclavicle 4.77083e-015 3.97569e-015
lhumerus -29.9253 -13.8529 88.4843
lradius 69.346
lwrist 24.7958
lhand -20.7025 13.8453
lfingers 7.12502
lthumb 5.66155 43.7496
rfemur -15.1419 -17.0701 16.4196
rtibia 19.119
rfoot -17.4472 -30.819
rtoes 4.71903
lfemur -33.9341 -4.86002 -20.4063
ltibia 24.2481
lfoot -6.77444 -13.7577
ltoes 7.13003
696
root 6.5418 17.7621 -3.46363 18.6166 0.689626 -1.52151
lowerback 9.20658 4.82246 1.08576
upperback 0.541974 6.56144 0.983974
thorax -4.56986 3.22517 -0.433203
lowerneck -10.3649 -13.8507 -16.904
upperneck 1.12501 -17.3346 15.5514
head 4.8617 -8.17641 5.84636
rclavicle 3.77691e-014 -3.97569e-015
rhumerus 24.0993 5.03343 -44.5307
rradius 52.1535
rwrist -42.2531
rhand -30.834 -14.5554
rfingers 7.12502
rthumb -4.12286 -44.4952
lclavicle 3.77691e-014 -3.97569e-015
lhumerus -29.9513 -13.875 88.5064
lradius 69.3601
lwrist 24.7877
lhand -20.7406 13.7569
lfingers 7.12502
lthumb 5.62476 43.6623
rfemur -15.0947 -17.038 16.3799
rtibia 19.1399
rfoot -17.4411 -30.8104
rtoes 4.72202
lfemur -33.8282 -4.81731 -20.4365
ltibia 24.1905
lfoot -6.75788 -13.7409
ltoes 7.12278
697
root 6.53903 17.7627 -3.46637 18.5405 0.633023 -1.5037
lowerback 9.17357 4.81313 1.06464
upperback 0.536073 6.54735 0.998137
thorax -4.5618 3.21903 -0.402655
lowerneck -10.4007 -13.8653 -16.8968
upperneck 1.2706 -17.3597 15.5001
head 4.90954 -8.18722 5.82025
rclavicle 2.62396e-014 1.03368e-014
rhumerus 23.7792 5.18497 -44.8181
rradius 52.3057
rwrist -42.2173
rhand -30.8398 -14.454
rfingers 7.12502
rthumb -4.12846 -44.3938
lclavicle 2.62396e-014 1.03368e-014
lhumerus -29.9656 -13.8787 88.5226
lradius 69.3639
lwrist 24.7784
lhand -20.776 13.6597
lfingers 7.12502
lthumb 5.59062 43.5659
rfemur -15.0405 -16.9972 16.3371
rtibia 19.161
rfoot -17.4387 -30.8086
rtoes 4.72365
lfemur -33.7154 -4.77435 -20.4674
ltibia 24.1317
lfoot -6.74409 -13.7251
ltoes 7.10653
698
root 6.53584 17.7634 -3.46877 18.461 0.576819 -1.48357
lowerback 9.13403 4.80262 1.03628
upperback 0.535214 6.53077 1.01331
thorax -4.54575 3.21194 -0.365929
lowerneck -10.4612 -13.8807 -16.9011
upperneck 1.43842 -17.3833 15.4552
head 4.96959 -8.19577 5.79598
rclavicle -4.69132e-014 5.56597e-015
rhumerus 23.464 5.31439 -45.121
rradius 52.4659
rwrist -42.1759
rhand -30.8256 -14.3494
rfingers 7.12502
rthumb -4.11473 -44.2894
lclavicle -4.69132e-014 5.56597e-015
lhumerus -29.9718 -13.8663 88.5338
lradius 69.3647
lwrist 24.7644
lhand -20.8098 13.5513
lfingers 7.12502
lthumb 5.55801 43.4585
rfemur -14.9792 -16.9487 16.2914
rtibia 19.1798
rfoot -17.4411 -30.8131
rtoes 4.73049
lfemur -33.5962 -4.73106 -20.4992
ltibia 24.0707
lfoot -6.73201 -13.712
ltoes 7.08541
699
root 6.53215 17.7641 -3.47093 18.3817 0.522854 -1.46198
lowerback 9.09068 4.79188 1.00268
upperback 0.532052 6.51334 1.02726
thorax -4.53039 3.20453 -0.32728
lowerneck -10.5329 -13.8963 -16.9138
upperneck 1.62481 -17.4066 15.417
head 5.0386 -8.2033 5.77389
rclavicle 2.0276e-014 3.18055e-014
rhumerus 23.1462 5.42457 -45.4458
rradius 52.6288
rwrist -42.1367
rhand -30.7918 -14.2381
rfingers 7.12502
rthumb -4.08209 -44.1787
lclavicle 2.0276e-014 3.18055e-014
lhumerus -29.9818 -13.8464 88.5409
lradius 69.3658
lwrist 24.7471
lhand -20.841 13.4281
lfingers 7.12502
lthumb 5.52787 43.336
rfemur -14.9136 -16.8931 16.2457
rtibia 19.1937
rfoot -17.4462 -30.827
rtoes 4.74219
lfemur -33.476 -4.68666 -20.5308
ltibia 24.0079
lfoot -6.71925 -13.704
ltoes 7.06736
700
root 6.528 17.765 -3.47273 18.3029 0.46663 -1.44298
lowerback 9.04751 4.78302 0.968335
upperback 0.522396 6.49836 1.03766
thorax -4.52154 3.19822 -0.292572
lowerneck -10.599 -13.9129 -16.9269
upperneck 1.81945 -17.4334 15.3835
head 5.11047 -8.21253 5.75291
rclavicle 1.00983e-013 -1.43125e-014
rhumerus 22.8164 5.52168 -45.7935
rradius 52.798
rwrist -42.1129
rhand -30.7408 -14.1238
rfingers 7.12502
rthumb -4.0328 -44.0653
lclavicle 1.00983e-013 -1.43125e-014
lhumerus -30.0031 -13.8231 88.5421
lradius 69.3684
lwrist 24.7269
lhand -20.8881 13.3264
lfingers 7.12502
lthumb 5.48242 43.2355
rfemur -14.8436 -16.8264 16.2028
rtibia 19.2017
rfoot -17.4555 -30.8464
rtoes 4.76197
lfemur -33.354 -4.63741 -20.559
ltibia 23.9433
lfoot -6.70917 -13.6989
ltoes 7.04712
701
root 6.52333 17.766 -3.47418 18.223 0.411428 -1.42538
lowerback 9.00297 4.77369 0.932106
upperback 0.508434 6.48262 1.04637
thorax -4.51641 3.19152 -0.2586
lowerneck -10.6658 -13.929 -16.9379
upperneck 2.01921 -17.46 15.3478
head 5.18365 -8.2216 5.73088
rclavicle 3.4191e-014 -1.19271e-014
rhumerus 22.4744 5.61273 -46.1603
rradius 52.9815
rwrist -42.118
rhand -30.6832 -14.0052
rfingers 7.12502
rthumb -3.97725 -43.9478
lclavicle 3.4191e-014 -1.19271e-014
lhumerus -30.0321 -13.7897 88.5382
lradius 69.3709
lwrist 24.7068
lhand -20.9579 13.2644
lfingers 7.12502
lthumb 5.41495 43.1752
rfemur -14.7662 -16.7503 16.1621
rtibia 19.2022
rfoot -17.4678 -30.8738
rtoes 4.79281
lfemur -33.2285 -4.58595 -20.584
ltibia 23.8776
lfoot -6.70087 -13.6976
ltoes 7.03449
702
root 6.51818 17.7672 -3.47535 18.1434 0.3555 -1.40985
lowerback 8.96058 4.76516 0.896865
upperback 0.486387 6.46806 1.04993
thorax -4.52016 3.18523 -0.231245
lowerneck -10.72 -13.9433 -16.9412
upperneck 2.21769 -17.487 15.3115
head 5.25392 -8.23147 5.70832
rclavicle -3.26007e-014 -2.06736e-014
rhumerus 22.1204 5.6986 -46.5527
rradius 53.1714
rwrist -42.1531
rhand -30.6219 -13.8798
rfingers 7.12502
rthumb -3.91804 -43.8235
lclavicle -3.26007e-014 -2.06736e-014
lhumerus -30.0697 -13.752 88.5269
lradius 69.3703
lwrist 24.6902
lhand -21.0534 13.2423
lfingers 7.12502
lthumb 5.32274 43.1554
rfemur -14.6824 -16.6637 16.1242
rtibia 19.1938
rfoot -17.4866 -30.9072
rtoes 4.84426
lfemur -33.1015 -4.53265 -20.6051
ltibia 23.8115
lfoot -6.69487 -13.6969
ltoes 7.02042
703
root 6.51265 17.7685 -3.47618 18.0659 0.296122 -1.3986
lowerback 8.91001 4.75775 0.863636
upperback 0.46172 6.45502 1.0502
thorax -4.52145 3.17967 -0.207958
lowerneck -10.7651 -13.9551 -16.9372
upperneck 2.40877 -17.512 15.2736
head 5.31944 -8.24087 5.68525
rclavicle 3.65764e-014 -1.66979e-014
rhumerus 21.7593 5.78171 -46.9645
rradius 53.3729
rwrist -42.2198
rhand -30.5623 -13.7575
rfingers 7.12502
rthumb -3.86046 -43.7023
lclavicle 3.65764e-014 -1.66979e-014
lhumerus -30.1081 -13.7064 88.5081
lradius 69.3659
lwrist 24.6773
lhand -21.168 13.2386
lfingers 7.12502
lthumb 5.21217 43.1545
rfemur -14.5957 -16.5685 16.0918
rtibia 19.1763
rfoot -17.5029 -30.9465
rtoes 4.89441
lfemur -32.9744 -4.4771 -20.62
ltibia 23.7449
lfoot -6.68919 -13.6936
ltoes 7.00698
704
root 6.50688 17.77 -3.47654 17.9856 0.234054 -1.39016
lowerback 8.85551 4.74927 0.831497
upperback 0.436381 6.44063 1.0497
thorax -4.52101 3.17346 -0.185582
lowerneck -10.8084 -13.9626 -16.9272
upperneck 2.59578 -17.5314 15.229
head 5.38138 -8.24788 5.66044
rclavicle 2.70347e-014 -2.38542e-015
rhumerus 21.397 5.87016 -47.3905
rradius 53.584
rwrist -42.3095
rhand -30.5052 -13.6381
rfingers 7.12502
rthumb -3.80534 -43.5839
lclavicle 2.70347e-014 -2.38542e-015
lhumerus -30.1529 -13.6451 88.4844
lradius 69.3655
lwrist 24.6695
lhand -21.2986 13.2425
lfingers 7.12502
lthumb 5.08608 43.1614
rfemur -14.5009 -16.4706 16.062
rtibia 19.1511
rfoot -17.5154 -30.9867
rtoes 4.93905
lfemur -32.8416 -4.42071 -20.631
ltibia 23.678
lfoot -6.68412 -13.6876
ltoes 6.99684
705
root 6.50085 17.7715 -3.47646 17.9039 0.170209 -1.38302
lowerback 8.79467 4.74144 0.800369
upperback 0.410436 6.42706 1.04724
thorax -4.5173 3.16767 -0.165336
lowerneck -10.8355 -13.9666 -16.9156
upperneck 2.77024 -17.5475 15.1851
head 5.43639 -8.2541 5.63741
rclavicle -4.37326e-014 -1.03368e-014
rhumerus 21.0296 5.95869 -47.8304
rradius 53.803
rwrist -42.4035
rhand -30.4415 -13.5205
rfingers 7.12502
rthumb -3.7438 -43.4674
lclavicle -4.37326e-014 -1.03368e-014
lhumerus -30.2068 -13.5806 88.4567
lradius 69.3763
lwrist 24.6706
lhand -21.4439 13.2462
lfingers 7.12502
lthumb 4.94575 43.1685
rfemur -14.4007 -16.3711 16.034
rtibia 19.1196
rfoot -17.5258 -31.0297
rtoes 4.9859
lfemur -32.7052 -4.36392 -20.6396
ltibia 23.61
lfoot -6.67905 -13.6789
ltoes 6.98464
706
root 6.49464 17.7732 -3.47605 17.8217 0.102515 -1.377
lowerback 8.72201 4.7335 0.767232
upperback 0.391225 6.41295 1.04633
thorax -4.50033 3.16185 -0.140918
lowerneck -10.8775 -13.9709 -16.9048
upperneck 2.94658 -17.5612 15.1369
head 5.49362 -8.25873 5.61264
rclavicle -7.39479e-014 -2.38542e-015
rhumerus 20.6682 6.04402 -48.2797
rradius 54.0321
rwrist -42.4855
rhand -30.3699 -13.3991
rfingers 7.12502
rthumb -3.6747 -43.3472
lclavicle -7.39479e-014 -2.38542e-015
lhumerus -30.2597 -13.5056 88.4266
lradius 69.4008
lwrist 24.6782
lhand -21.5963 13.2494
lfingers 7.12502
lthumb 4.79862 43.1751
rfemur -14.2971 -16.2676 16.007
rtibia 19.083
rfoot -17.5377 -31.0728
rtoes 5.04458
lfemur -32.5657 -4.30495 -20.6467
ltibia 23.5404
lfoot -6.67262 -13.6689
ltoes 6.96923
